<svg id="visual" viewBox="0 0 2500 150" width="2500" height="150" xmlns="http://www.w3.org/2000/svg" xmlns:xlink="http://www.w3.org/1999/xlink" version="1.1"><rect x="0" y="0" width="2500" height="150" fill="#ece8e9"></rect><path d="M0 113L41.7 110.8C83.3 108.7 166.7 104.3 250 101.3C333.3 98.3 416.7 96.7 500 95.2C583.3 93.7 666.7 92.3 750 96.2C833.3 100 916.7 109 1000 115.3C1083.3 121.7 1166.7 125.3 1250 118.8C1333.3 112.3 1416.7 95.7 1500 95.3C1583.3 95 1666.7 111 1750 117.8C1833.3 124.7 1916.7 122.3 2000 120.8C2083.3 119.3 2166.7 118.7 2250 111C2333.3 103.3 2416.7 88.7 2458.3 81.3L2500 74L2500 151L2458.3 151C2416.7 151 2333.3 151 2250 151C2166.7 151 2083.3 151 2000 151C1916.7 151 1833.3 151 1750 151C1666.7 151 1583.3 151 1500 151C1416.7 151 1333.3 151 1250 151C1166.7 151 1083.3 151 1000 151C916.7 151 833.3 151 750 151C666.7 151 583.3 151 500 151C416.7 151 333.3 151 250 151C166.7 151 83.3 151 41.7 151L0 151Z" fill="#d2c7c9" stroke-linecap="round" stroke-linejoin="miter"></path></svg>