<svg id="visual" viewBox="0 0 2500 150" width="2500" height="150" xmlns="http://www.w3.org/2000/svg" xmlns:xlink="http://www.w3.org/1999/xlink" version="1.1"><rect x="0" y="0" width="2500" height="150" fill="#d2c7c9"></rect><path d="M0 117L22 114.3C44 111.7 88 106.3 131.8 105C175.7 103.7 219.3 106.3 263.2 111.8C307 117.3 351 125.7 394.8 123.8C438.7 122 482.3 110 526.2 103C570 96 614 94 657.8 93.8C701.7 93.7 745.3 95.3 789.2 92.8C833 90.3 877 83.7 921 83.8C965 84 1009 91 1052.8 98.3C1096.7 105.7 1140.3 113.3 1184.2 117C1228 120.7 1272 120.3 1315.8 113C1359.7 105.7 1403.3 91.3 1447.2 86C1491 80.7 1535 84.3 1579 81.7C1623 79 1667 70 1710.8 66C1754.7 62 1798.3 63 1842.2 63.8C1886 64.7 1930 65.3 1973.8 74.8C2017.7 84.3 2061.3 102.7 2105.2 108C2149 113.3 2193 105.7 2236.8 104.5C2280.7 103.3 2324.3 108.7 2368.2 110.2C2412 111.7 2456 109.3 2478 108.2L2500 107L2500 151L2478 151C2456 151 2412 151 2368.2 151C2324.3 151 2280.7 151 2236.8 151C2193 151 2149 151 2105.2 151C2061.3 151 2017.7 151 1973.8 151C1930 151 1886 151 1842.2 151C1798.3 151 1754.7 151 1710.8 151C1667 151 1623 151 1579 151C1535 151 1491 151 1447.2 151C1403.3 151 1359.7 151 1315.8 151C1272 151 1228 151 1184.2 151C1140.3 151 1096.7 151 1052.8 151C1009 151 965 151 921 151C877 151 833 151 789.2 151C745.3 151 701.7 151 657.8 151C614 151 570 151 526.2 151C482.3 151 438.7 151 394.8 151C351 151 307 151 263.2 151C219.3 151 175.7 151 131.8 151C88 151 44 151 22 151L0 151Z" fill="#ece8e9" stroke-linecap="round" stroke-linejoin="miter"></path></svg>