<svg id="visual" viewBox="0 0 2500 150" width="2500" height="150" xmlns="http://www.w3.org/2000/svg" xmlns:xlink="http://www.w3.org/1999/xlink" version="1.1"><rect x="0" y="0" width="2500" height="150" fill="#d2c7c9"></rect><path d="M0 60L59.5 59.5C119 59 238 58 357 56.2C476 54.3 595 51.7 714 55.3C833 59 952 69 1071.2 79.2C1190.3 89.3 1309.7 99.7 1428.8 108.2C1548 116.7 1667 123.3 1786 123.5C1905 123.7 2024 117.3 2143 109.8C2262 102.3 2381 93.7 2440.5 89.3L2500 85L2500 151L2440.5 151C2381 151 2262 151 2143 151C2024 151 1905 151 1786 151C1667 151 1548 151 1428.8 151C1309.7 151 1190.3 151 1071.2 151C952 151 833 151 714 151C595 151 476 151 357 151C238 151 119 151 59.5 151L0 151Z" fill="#ece8e9" stroke-linecap="round" stroke-linejoin="miter"></path></svg>